#N canvas 574 299 681 410 10;
#X declare -lib Gem;
#X obj 273 71 gemhead;
#X obj 479 60 import Gem;
#X obj 475 26 gemwin_control;
#X obj 298 107 pix_image ckc.jpg;
#X obj 296 133 pix_texture;
#X obj 274 195 cuboid 4 4 4;
#X obj 389 30 loadbang;
#X obj 42 34 inlet;
#X obj 87 34 inlet;
#X obj 132 34 inlet;
#X text 37 11 X;
#X text 83 12 Y;
#X text 133 9 Z;
#X obj 15 120 translateXYZ 1 1 1;
#X msg 102 173 draw line;
#X obj 267 35 bng 15 250 50 0 empty empty empty 17 7 0 10 -262144 -1
-1;
#X obj 133 248 sphere 0.6 30;
#X obj 56 143 color 0.2 0.9 0.3;
#X msg 125 198 draw fill;
#X obj 169 149 pix_texture;
#X obj 170 103 pix_image flr.jpg;
#X obj 204 122 repeat 1;
#X obj 264 6 inlet;
#X connect 0 0 3 0;
#X connect 3 0 4 0;
#X connect 4 0 5 0;
#X connect 5 0 20 0;
#X connect 7 0 13 1;
#X connect 8 0 13 2;
#X connect 9 0 13 3;
#X connect 13 0 16 0;
#X connect 14 0 16 0;
#X connect 15 0 0 0;
#X connect 17 0 16 0;
#X connect 18 0 16 0;
#X connect 19 0 16 0;
#X connect 20 0 19 0;
#X connect 21 0 19 0;
#X connect 22 0 15 0;
