#N canvas 572 82 977 844 10;
#X declare -lib Gem;
#X obj 146 16 ctlin;
#X obj 77 250 hsl 128 15 0 127 0 0 empty empty X -2 -8 0 10 -204786
-1 -1 7100 1;
#X text 204 82 control channel;
#X text 42 149 1 finger X;
#X floatatom 89 87 5 0 0 0 - - -;
#X floatatom 243 60 5 0 0 0 - - -;
#X text 51 66 control val;
#X obj 67 177 spigot;
#X obj 110 146 == 6;
#X obj 185 172 spigot;
#X text 269 145 1 finger Y;
#X obj 237 144 == 7;
#X obj 76 282 vsl 15 128 0 127 0 0 empty empty Y 0 -9 0 10 -261234
-1 -1 2500 1;
#X obj 137 288 vsl 15 128 0 127 0 0 empty empty Z 0 -9 0 10 -259836
-1 -1 5200 1;
#X obj 302 196 spigot;
#X text 404 149 1 finger Z;
#X obj 372 149 == 8;
#N canvas 0 22 450 300 (subpatch) 0;
#X array table 6.2079e+06 float 0;
#X coords 0 1 6.2079e+06 -1 100 60 1 0 0;
#X restore 530 163 graph;
#X msg 490 47 read Hazy.aif table;
#X obj 494 79 soundfiler;
#X obj 385 528 tabplay~ table;
#X obj 379 203 loadbang;
#X obj 486 16 loadbang;
#X obj 380 251 metro 1500;
#X obj 385 291 bng 15 250 50 0 empty empty empty 17 7 0 10 -262144
-1 -1;
#X obj 400 227 bng 15 250 50 0 empty empty empty 17 7 0 10 -262144
-1 -1;
#X obj 548 769 output~;
#X obj 596 430 line~;
#X obj 611 386 list;
#X obj 541 323 + 1;
#X obj 690 525 tabwrite~ line;
#N canvas 0 22 450 278 (subpatch) 0;
#X array line 1 float 0;
#X coords 0 1 1 -1 200 140 1;
#X restore 736 50 graph;
#X obj 572 352 / 127;
#X obj 616 351 500;
#X obj 619 463 /~ 2;
#X obj 612 515 *~ 1.5;
#X obj 342 580 tabplay~ table;
#X obj 251 283 inv;
#X obj 239 254 + 0.1;
#X obj 256 510 + 30000;
#X obj 242 610 / 44100;
#X obj 217 553 + 500000;
#X obj 528 481 /~ 1.5;
#X obj 169 524 * 16000;
#X obj 260 475 * 22000;
#X obj 612 485 +~ 0.3;
#X obj 430 400 osc~;
#X obj 493 399 snapshot~;
#X obj 417 374 / 100;
#X obj 522 432 + 1;
#X obj 522 456 * 300;
#X obj 462 577 hip~ 50;
#X obj 405 634 lop~ 2000;
#X obj 406 465 + 1000;
#X obj 455 700 *~;
#X obj 453 656 osc~ 0.5;
#X obj 613 617 osc~ 0.7;
#X obj 635 649 *~;
#N canvas 796 509 649 532 3d_pos 1;
#X obj 306 143 pix_texture;
#X obj 306 168 cuboid 4 4 4;
#X obj 52 44 inlet;
#X obj 97 44 inlet;
#X obj 142 44 inlet;
#X text 47 21 X;
#X text 93 22 Y;
#X text 143 19 Z;
#X msg 112 183 draw line;
#X obj 66 153 color 0.2 0.9 0.3;
#X msg 135 208 draw fill;
#X obj -31 49 inlet;
#X text -42 23 gemhead;
#X floatatom 25 93 5 0 0 0 - - -;
#X obj 25 130 translateXYZ 0 0 0;
#X obj 291 249 pix_texture;
#X obj 349 217 pix_image flr.jpg;
#X obj 214 191 bng 15 250 50 0 empty empty empty 17 7 0 10 -262144
-1 -1;
#X obj -33 115 loadbang;
#X obj 166 335 sphere 1 30;
#X floatatom -1 327 5 0 0 0 - - -;
#X obj 226 45 inlet;
#X obj -4 297 float;
#X obj 52 297 + 1;
#X msg -28 155 auto 0;
#X msg -30 277 0;
#X obj -30 215 pix_film julia1.mov;
#X obj -32 244 pix_texture;
#X obj 59 247 bng 15 250 50 0 empty empty empty 17 7 0 10 -262144 -1
-1;
#X obj 308 117 pix_image greenBlue.jpg;
#X obj 79 375 mod 4;
#X floatatom 132 396 5 0 0 0 - - -;
#X connect 0 0 1 0;
#X connect 1 0 14 0;
#X connect 2 0 13 0;
#X connect 2 0 14 1;
#X connect 3 0 14 2;
#X connect 4 0 14 3;
#X connect 8 0 19 0;
#X connect 9 0 19 0;
#X connect 10 0 19 0;
#X connect 11 0 29 0;
#X connect 14 0 26 0;
#X connect 16 0 15 0;
#X connect 17 0 22 0;
#X connect 18 0 24 0;
#X connect 20 0 30 0;
#X connect 21 0 17 0;
#X connect 22 0 20 0;
#X connect 22 0 23 0;
#X connect 22 0 26 1;
#X connect 23 0 22 1;
#X connect 25 0 22 1;
#X connect 26 0 27 0;
#X connect 26 2 28 0;
#X connect 27 0 19 0;
#X connect 28 0 25 0;
#X connect 29 0 0 0;
#X connect 30 0 31 0;
#X restore 747 499 pd 3d_pos;
#X obj 735 228 import Gem;
#X obj 733 251 gemwin_control;
#X obj 700 309 gemhead;
#X obj 84 439 s y;
#X obj 19 330 s x;
#X obj 142 437 s z;
#X obj 164 491 r y;
#X obj 542 283 r z;
#X obj 406 346 r z;
#X obj 733 341 r x;
#X obj 755 324 r y;
#X obj 773 343 r z;
#X obj 333 549 r x;
#X obj 256 429 r x;
#X obj 231 219 r z;
#X floatatom 216 376 5 0 0 0 - - -;
#X obj 251 344 * 10000;
#X obj 734 365 / 32;
#X obj 732 413 - 2;
#X obj 769 429 - 0.9;
#X obj 752 388 / 32;
#X obj 778 368 / 32;
#X obj 788 409 - 2;
#X obj 441 214 1500;
#X obj 444 187 bng 15 250 50 0 empty empty empty 17 7 0 10 -262144
-1 -1;
#X obj 219 313 spigot;
#X floatatom 302 255 5 0 0 0 - - -;
#X obj 296 286 < 1;
#X connect 0 0 4 0;
#X connect 0 1 5 0;
#X connect 1 0 63 0;
#X connect 4 0 7 0;
#X connect 4 0 9 0;
#X connect 4 0 14 0;
#X connect 5 0 16 0;
#X connect 5 0 11 0;
#X connect 5 0 8 0;
#X connect 7 0 1 0;
#X connect 8 0 7 1;
#X connect 9 0 12 0;
#X connect 11 0 9 1;
#X connect 12 0 62 0;
#X connect 13 0 64 0;
#X connect 14 0 13 0;
#X connect 16 0 14 1;
#X connect 18 0 19 0;
#X connect 20 0 51 0;
#X connect 21 0 23 0;
#X connect 22 0 18 0;
#X connect 23 0 24 0;
#X connect 23 0 30 0;
#X connect 23 0 29 0;
#X connect 23 0 43 0;
#X connect 23 0 44 0;
#X connect 23 0 47 0;
#X connect 24 0 61 0;
#X connect 24 0 58 4;
#X connect 25 0 23 0;
#X connect 27 0 30 0;
#X connect 27 0 34 0;
#X connect 28 0 27 0;
#X connect 29 0 32 0;
#X connect 32 0 28 0;
#X connect 33 0 28 1;
#X connect 34 0 45 0;
#X connect 36 0 52 0;
#X connect 37 0 85 0;
#X connect 37 0 86 0;
#X connect 37 0 84 0;
#X connect 38 0 37 0;
#X connect 39 0 20 0;
#X connect 39 0 40 0;
#X connect 41 0 36 0;
#X connect 41 0 40 0;
#X connect 42 0 35 0;
#X connect 43 0 41 0;
#X connect 44 0 39 0;
#X connect 45 0 35 1;
#X connect 46 0 47 0;
#X connect 47 0 49 0;
#X connect 48 0 46 0;
#X connect 49 0 50 0;
#X connect 50 0 51 1;
#X connect 50 0 53 0;
#X connect 51 0 26 0;
#X connect 51 0 57 0;
#X connect 52 0 26 1;
#X connect 52 0 54 1;
#X connect 53 0 52 1;
#X connect 54 0 26 0;
#X connect 55 0 54 0;
#X connect 56 0 57 1;
#X connect 57 0 26 1;
#X connect 61 0 58 0;
#X connect 65 0 43 0;
#X connect 66 0 29 0;
#X connect 67 0 48 0;
#X connect 68 0 76 0;
#X connect 69 0 79 0;
#X connect 70 0 80 0;
#X connect 71 0 36 0;
#X connect 72 0 44 0;
#X connect 73 0 38 0;
#X connect 75 0 74 0;
#X connect 75 0 23 1;
#X connect 76 0 77 0;
#X connect 77 0 58 1;
#X connect 78 0 58 2;
#X connect 79 0 78 0;
#X connect 80 0 81 0;
#X connect 81 0 58 3;
#X connect 82 0 23 1;
#X connect 83 0 82 0;
#X connect 84 0 75 0;
#X connect 86 0 84 1;
#X coords 0 0 0.3 1 0 0 0;
