#N canvas 119 255 977 844 10;
#X declare -lib Gem;
#X obj 146 16 ctlin;
#X obj 77 250 hsl 128 15 0 127 0 0 empty empty X -2 -8 0 10 -204786
-1 -1 0 1;
#X text 204 82 control channel;
#X text 42 149 1 finger X;
#X floatatom 89 87 5 0 0 0 - - -;
#X floatatom 243 60 5 0 0 0 - - -;
#X text 51 66 control val;
#X obj 67 177 spigot;
#X obj 110 146 == 6;
#X obj 185 172 spigot;
#X text 269 145 1 finger Y;
#X obj 237 144 == 7;
#X obj 76 282 vsl 15 128 0 127 0 0 empty empty Y 0 -9 0 10 -261234
-1 -1 7000 1;
#X obj 137 288 vsl 15 128 0 127 0 0 empty empty Z 0 -9 0 10 -259836
-1 -1 0 1;
#X obj 302 196 spigot;
#X text 404 149 1 finger Z;
#X obj 372 149 == 8;
#N canvas 0 22 450 300 (subpatch) 0;
#X array hazy 6.2079e+06 float 0;
#X coords 0 1 6.2079e+06 -1 100 60 1 0 0;
#X restore 635 119 graph;
#X obj 494 79 soundfiler;
#X obj 379 203 loadbang;
#X obj 438 26 loadbang;
#X obj 400 255 metro 1500;
#X obj 385 291 bng 15 250 50 0 empty empty empty 17 7 0 10 -262144
-1 -1;
#X obj 400 227 bng 15 250 50 0 empty empty empty 17 7 0 10 -262144
-1 -1;
#X obj 517 771 output~;
#X obj 292 542 / 44100;
#X obj 279 502 + 500000;
#X obj 270 475 * 16000;
#X obj 324 474 * 22000;
#X obj 430 400 osc~;
#X obj 493 399 snapshot~;
#X obj 417 374 / 100;
#X obj 522 432 + 1;
#X obj 522 456 * 300;
#X obj 519 609 hip~ 50;
#X obj 405 634 lop~ 2000;
#X obj 406 465 + 1000;
#X obj 457 660 osc~ 0.5;
#N canvas -169 526 606 553 3d_pos 1;
#X obj 52 44 inlet;
#X obj 97 44 inlet;
#X obj 143 45 inlet;
#X text 47 21 X;
#X text 93 22 Y;
#X text 143 19 Z;
#X obj 232 79 bng 15 250 50 0 empty empty empty 17 7 0 10 -262144 -1
-1;
#X obj 299 30 loadbang;
#X floatatom -43 351 5 0 0 0 - - -;
#X obj 226 45 inlet;
#X obj -48 307 float;
#X obj 52 297 + 1;
#X msg -18 323 0;
#X obj -39 174 pix_film julia1.mov;
#X obj -48 236 pix_texture;
#X obj 59 247 bng 15 250 50 0 empty empty empty 17 7 0 10 -262144 -1
-1;
#X text -46 374 frame;
#X obj 399 45 translateXYZ 0 0 0;
#X obj 416 91 counter 2 0 360;
#X floatatom 383 144 5 0 0 0 - - -;
#X obj 418 156 rotateXYZ;
#X obj 422 189 cuboid 8 8 8;
#X obj 73 380 pix_image flr.jpg;
#X obj 26 410 pix_image greenBlue.jpg;
#X obj -42 38 gemhead;
#X obj 186 177 counter 2 0 360;
#X obj 199 217 rotateXYZ;
#X obj 60 116 translateXYZ;
#X obj 462 129 / 3;
#X obj 399 415 pix_texture;
#X obj 177 410 pix_image julia2.jpg;
#X obj 346 476 pix_refraction;
#X floatatom 354 295 5 0 0 0 - - -;
#X obj 295 7 bng 15 250 50 0 empty empty empty 17 7 0 10 -262144 -1
-1;
#X msg 377 340 refract \$1;
#X obj 51 359 gemhead;
#X msg 317 341 mag \$1;
#X obj 399 276 metro 150;
#X obj 345 88 bng 15 250 50 0 empty empty empty 17 7 0 10 -262144 -1
-1;
#X obj 339 60 metro 300;
#X obj 52 335 tgl 15 0 empty empty empty 17 7 0 10 -262144 -1 -1 0
1;
#X obj 190 354 gemhead;
#X obj 191 330 tgl 15 0 empty empty empty 17 7 0 10 -262144 -1 -1 0
1;
#X obj 115 356 gemhead;
#X obj 116 332 tgl 15 0 empty empty empty 17 7 0 10 -262144 -1 -1 0
1;
#X obj 397 301 counter 2 2 12;
#X obj 213 143 metro 1500;
#X obj 90 299 == 0;
#X obj 126 298 == 1;
#X obj 160 298 == 2;
#X obj 100 237 bng 15 250 50 0 empty empty empty 17 7 0 10 -262144
-1 -1;
#X obj -38 268 metro 100;
#X obj 136 78 / 2;
#X obj 210 260 sphere 1.5 30;
#X obj 235 346 gemhead;
#X obj 223 329 tgl 15 0 empty empty empty 17 7 0 10 -262144 -1 -1 0
1;
#X obj 283 359 gemhead;
#X obj 278 334 tgl 15 0 empty empty empty 17 7 0 10 -262144 -1 -1 1
1;
#X obj 207 299 == 3;
#X obj 247 302 == 4;
#X obj 99 267 random 5;
#X obj 205 377 pix_image blueRed.jpg;
#X obj 331 399 pix_image GreenStuff.jpg;
#X connect 0 0 27 1;
#X connect 1 0 27 2;
#X connect 2 0 52 0;
#X connect 6 0 10 0;
#X connect 6 0 45 0;
#X connect 6 0 50 0;
#X connect 7 0 37 0;
#X connect 7 0 39 0;
#X connect 7 0 46 0;
#X connect 7 0 51 0;
#X connect 9 0 6 0;
#X connect 10 0 8 0;
#X connect 10 0 11 0;
#X connect 10 0 13 1;
#X connect 11 0 10 1;
#X connect 12 0 10 1;
#X connect 13 0 14 0;
#X connect 13 2 15 0;
#X connect 14 0 26 0;
#X connect 15 0 12 0;
#X connect 17 0 20 0;
#X connect 18 0 19 0;
#X connect 18 0 20 1;
#X connect 18 0 28 0;
#X connect 18 0 20 2;
#X connect 20 0 21 0;
#X connect 22 0 31 0;
#X connect 23 0 31 0;
#X connect 24 0 27 0;
#X connect 25 0 26 1;
#X connect 25 0 26 2;
#X connect 25 0 26 3;
#X connect 26 0 53 0;
#X connect 27 0 13 0;
#X connect 28 0 20 3;
#X connect 29 0 17 0;
#X connect 30 0 31 0;
#X connect 31 0 29 0;
#X connect 33 0 7 0;
#X connect 34 0 31 0;
#X connect 35 0 23 0;
#X connect 37 0 45 0;
#X connect 39 0 18 0;
#X connect 39 0 38 0;
#X connect 40 0 35 0;
#X connect 41 0 30 0;
#X connect 42 0 41 0;
#X connect 43 0 22 0;
#X connect 44 0 43 0;
#X connect 45 0 32 0;
#X connect 45 0 34 0;
#X connect 45 0 36 0;
#X connect 46 0 25 0;
#X connect 47 0 40 0;
#X connect 48 0 44 0;
#X connect 49 0 42 0;
#X connect 50 0 60 0;
#X connect 51 0 10 0;
#X connect 52 0 27 3;
#X connect 54 0 61 0;
#X connect 55 0 54 0;
#X connect 56 0 62 0;
#X connect 57 0 56 0;
#X connect 58 0 55 0;
#X connect 59 0 57 0;
#X connect 60 0 47 0;
#X connect 60 0 48 0;
#X connect 60 0 49 0;
#X connect 60 0 58 0;
#X connect 60 0 59 0;
#X connect 61 0 31 0;
#X connect 62 0 31 0;
#X restore 607 392 pd 3d_pos;
#X obj 735 228 import Gem;
#X obj 743 295 gemwin_control;
#X obj 84 439 s y;
#X obj 19 330 s x;
#X obj 142 437 s z;
#X obj 265 442 r y;
#X obj 406 346 r z;
#X obj 597 265 r x;
#X obj 619 248 r y;
#X obj 637 267 r z;
#X obj 305 444 r x;
#X obj 231 219 r z;
#X obj 598 289 / 32;
#X obj 596 337 - 2;
#X obj 633 353 - 0.9;
#X obj 616 312 / 32;
#X obj 642 292 / 32;
#X obj 652 333 - 2;
#X obj 441 214 1500;
#X obj 444 187 bng 15 250 50 0 empty empty empty 17 7 0 10 -262144
-1 -1;
#X obj 346 504 + 3e+06;
#X obj 337 88 soundfiler;
#X obj 439 5 bng 15 250 50 0 empty empty empty 17 7 0 10 -262144 -1
-1;
#X msg 490 47 read Hazy.aif hazy;
#X obj 316 577 tabplay~ hazy;
#X obj 390 540 tabplay~ hazy;
#N canvas 0 22 450 278 (subpatch) 0;
#X array alh 1.23079e+06 float 0;
#X coords 0 1 1.23079e+06 -1 200 140 1 0 0;
#X restore 755 34 graph;
#X obj 283 671 tabplay~ alh;
#X msg 319 58 read alh.wav alh;
#X obj 114 688 sin;
#X obj 132 582 tgl 15 0 empty empty empty 17 7 0 10 -262144 -1 -1 1
1;
#X obj 110 514 loadbang;
#X obj 110 538 bng 15 250 50 0 empty empty empty 17 7 0 10 -262144
-1 -1;
#X obj 164 712 bp~;
#X floatatom 115 797 5 0 0 0 - - -;
#X obj 114 662 / 10;
#X obj 118 636 counter 2 0 60.28;
#X floatatom 175 695 5 1 8 0 Q - -;
#X obj 186 654 r x;
#X obj 173 678 / 32;
#X obj 110 605 metro 100;
#X obj 102 716 + 1;
#X obj 122 770 + 700;
#X obj 116 743 * 900;
#X floatatom 233 664 5 0 0 0 - - -;
#X obj 203 600 counter 0 0 100;
#X obj 473 234 float;
#X floatatom 525 238 5 0 0 0 - - -;
#X obj 234 296 * 10;
#X obj 257 757 snapshot~;
#X floatatom 255 790 5 0 0 0 - - -;
#X obj 455 700 *~ 0.5;
#X obj 169 411 expr 127 - $f1;
#X obj 266 633 * 8820;
#X obj 164 547 metro 1500;
#X obj 534 662 *~ 0.8;
#X obj 334 739 hip~ 200;
#X obj 818 202 bng 35 250 50 0 empty empty GO! 5 10 2 10 -257985 -86277
-1;
#X msg 737 268 reset \, dimen 1920 1200 \, create \, 1;
#X connect 0 0 4 0;
#X connect 0 1 5 0;
#X connect 1 0 42 0;
#X connect 4 0 7 0;
#X connect 4 0 9 0;
#X connect 4 0 14 0;
#X connect 5 0 16 0;
#X connect 5 0 11 0;
#X connect 5 0 8 0;
#X connect 7 0 1 0;
#X connect 8 0 7 1;
#X connect 9 0 12 0;
#X connect 11 0 9 1;
#X connect 12 0 41 0;
#X connect 13 0 91 0;
#X connect 14 0 13 0;
#X connect 16 0 14 1;
#X connect 19 0 21 0;
#X connect 20 0 62 0;
#X connect 20 0 67 0;
#X connect 21 0 22 0;
#X connect 21 0 27 0;
#X connect 21 0 28 0;
#X connect 21 0 30 0;
#X connect 22 0 38 3;
#X connect 22 0 66 0;
#X connect 23 0 21 0;
#X connect 25 0 63 0;
#X connect 26 0 25 0;
#X connect 27 0 26 0;
#X connect 28 0 59 0;
#X connect 29 0 30 0;
#X connect 30 0 32 0;
#X connect 31 0 29 0;
#X connect 32 0 33 0;
#X connect 33 0 34 1;
#X connect 33 0 36 0;
#X connect 34 0 94 0;
#X connect 34 0 24 0;
#X connect 35 0 90 1;
#X connect 36 0 35 1;
#X connect 37 0 90 0;
#X connect 44 0 27 0;
#X connect 45 0 31 0;
#X connect 46 0 51 0;
#X connect 47 0 54 0;
#X connect 48 0 55 0;
#X connect 49 0 28 0;
#X connect 50 0 87 0;
#X connect 51 0 52 0;
#X connect 52 0 38 0;
#X connect 53 0 38 1;
#X connect 54 0 53 0;
#X connect 55 0 56 0;
#X connect 56 0 38 2;
#X connect 57 0 85 0;
#X connect 58 0 57 0;
#X connect 59 0 64 0;
#X connect 61 0 20 0;
#X connect 62 0 18 0;
#X connect 63 0 35 0;
#X connect 64 0 34 0;
#X connect 66 0 72 0;
#X connect 67 0 60 0;
#X connect 68 0 80 0;
#X connect 69 0 79 0;
#X connect 70 0 71 0;
#X connect 70 0 69 0;
#X connect 71 0 79 0;
#X connect 71 0 93 0;
#X connect 72 0 88 0;
#X connect 72 0 95 0;
#X connect 74 0 68 0;
#X connect 75 0 74 0;
#X connect 76 0 72 2;
#X connect 77 0 78 0;
#X connect 78 0 76 0;
#X connect 79 0 75 0;
#X connect 79 0 88 0;
#X connect 80 0 82 0;
#X connect 81 0 73 0;
#X connect 82 0 72 1;
#X connect 82 0 81 0;
#X connect 84 0 83 0;
#X connect 84 0 92 0;
#X connect 85 0 86 0;
#X connect 85 0 21 1;
#X connect 87 0 85 0;
#X connect 88 0 89 0;
#X connect 90 0 24 0;
#X connect 91 0 43 0;
#X connect 92 0 66 0;
#X connect 93 0 84 0;
#X connect 93 0 88 0;
#X connect 94 0 24 1;
#X connect 95 0 24 0;
#X connect 95 0 24 1;
#X connect 96 0 97 0;
#X connect 97 0 40 0;
#X coords 0 0 0.3 1 0 0 0;
